<?xml version="1.0" encoding="UTF-8" standalone="no"?>
<svg
   height="19.820869"
   viewBox="0 0 125.71295 19.82087"
   width="125.71294"
   version="1.1"
   id="svg26"
   sodipodi:docname="calendar_button.svg"
   inkscape:version="1.1.2 (b8e25be833, 2022-02-05)"
   xmlns:inkscape="http://www.inkscape.org/namespaces/inkscape"
   xmlns:sodipodi="http://sodipodi.sourceforge.net/DTD/sodipodi-0.dtd"
   xmlns="http://www.w3.org/2000/svg"
   xmlns:svg="http://www.w3.org/2000/svg">
  <defs
     id="defs30" />
  <sodipodi:namedview
     id="namedview28"
     pagecolor="#ffffff"
     bordercolor="#666666"
     borderopacity="1.0"
     inkscape:pageshadow="2"
     inkscape:pageopacity="0.0"
     inkscape:pagecheckerboard="0"
     showgrid="false"
     fit-margin-top="0"
     fit-margin-left="0"
     fit-margin-right="0"
     fit-margin-bottom="0"
     inkscape:zoom="1.8905286"
     inkscape:cx="77.756031"
     inkscape:cy="20.100198"
     inkscape:window-width="1920"
     inkscape:window-height="974"
     inkscape:window-x="-11"
     inkscape:window-y="-11"
     inkscape:window-maximized="1"
     inkscape:current-layer="svg26" />
  <g
     id="g3187"
     transform="scale(0.8)">
    <rect
       style="fill:none;stroke:#000000;stroke-width:0.74048;stroke-linecap:round;stroke-linejoin:round;stroke-miterlimit:4;stroke-dasharray:none"
       id="rect7881"
       width="156.4007"
       height="24.035606"
       x="0.37024"
       y="0.37024"
       ry="6.093534" />
    <g
       fill="none"
       fill-rule="evenodd"
       id="g24"
       transform="matrix(0.64,0,0,0.64,1.7998502,0.86804272)">
      <path
         d="M 0,0 H 36 V 36 H 0 Z"
         id="path2" />
      <g
         fill-rule="nonzero"
         transform="translate(3.75,3.75)"
         id="g22">
        <path
           d="M 21.75,6.75 15,6 6.75,6.75 6,14.25 l 0.75,7.5 7.5,0.9375 7.5,-0.9375 0.75,-7.6875 z"
           fill="#ffffff"
           id="path4" />
        <path
           d="M 9.826875,18.38625 C 9.26625,18.0075 8.878125,17.454375 8.66625,16.723125 l 1.30125,-0.53625 c 0.118125,0.45 0.324375,0.79875 0.61875,1.04625 0.2925,0.2475 0.64875,0.369375 1.065,0.369375 0.425625,0 0.79125,-0.129375 1.096875,-0.388125 0.305625,-0.25875 0.459375,-0.58875 0.459375,-0.988125 0,-0.40875 -0.16125,-0.7425 -0.48375,-1.00125 -0.3225,-0.25875 -0.7275,-0.388125 -1.21125,-0.388125 H 10.760625 V 13.54875 h 0.675 c 0.41625,0 0.766875,-0.1125 1.051875,-0.3375 0.285,-0.225 0.4275,-0.5325 0.4275,-0.924375 0,-0.34875 -0.1275,-0.62625 -0.3825,-0.834375 -0.255,-0.208125 -0.5775,-0.313125 -0.969375,-0.313125 -0.3825,0 -0.68625,0.10125 -0.91125,0.305625 -0.225,0.204375 -0.388125,0.455625 -0.49125,0.751875 L 8.8725,11.660625 c 0.170625,-0.48375 0.48375,-0.91125 0.943125,-1.280625 0.459375,-0.369375 1.04625,-0.555 1.75875,-0.555 0.526875,0 1.00125,0.10125 1.42125,0.305625 0.42,0.204375 0.75,0.4875 0.988125,0.8475 C 14.221875,11.34 14.34,11.745 14.34,12.195 c 0,0.459375 -0.110625,0.8475 -0.331875,1.16625 C 13.786875,13.68 13.515,13.92375 13.1925,14.094375 v 0.07688 c 0.425625,0.178125 0.7725,0.45 1.04625,0.815625 0.271875,0.365625 0.40875,0.8025 0.40875,1.3125 0,0.51 -0.129375,0.965625 -0.388125,1.365 -0.25875,0.399375 -0.616875,0.714375 -1.070625,0.943125 -0.455625,0.22875 -0.9675,0.345014 -1.535625,0.345014 C 10.995,18.954375 10.3875,18.765 9.826875,18.38625 Z"
           fill="#1a73e8"
           id="path6" />
        <path
           d="m 17.8125,11.92875 -1.42125,1.033125 -0.714375,-1.08375 2.563125,-1.84875 h 0.9825 V 18.75 h -1.41 z"
           fill="#1a73e8"
           id="path8" />
        <path
           d="m 21.75,28.5 6.75,-6.75 -3.375,-1.5 -3.375,1.5 -1.5,3.375 z"
           fill="#ea4335"
           id="path10" />
        <path
           d="m 5.25,25.125 1.5,3.375 h 15 v -6.75 h -15 z"
           fill="#34a853"
           id="path12" />
        <path
           d="M 2.25,0 C 1.006875,0 0,1.006875 0,2.25 v 19.5 l 3.375,1.5 3.375,-1.5 v -15 h 15 L 23.25,3.375 21.75,0 Z"
           fill="#4285f4"
           id="path14" />
        <path
           d="m 0,21.75 v 4.5 c 0,1.243125 1.006875,2.25 2.25,2.25 h 4.5 v -6.75 z"
           fill="#188038"
           id="path16" />
        <path
           d="m 21.75,6.75 v 15 h 6.75 v -15 l -3.375,-1.5 z"
           fill="#fbbc04"
           id="path18" />
        <path
           d="M 28.5,6.75 V 2.25 C 28.5,1.006875 27.493125,0 26.25,0 h -4.5 v 6.75 z"
           fill="#1967d2"
           id="path20" />
      </g>
    </g>
    <text
       xml:space="preserve"
       style="font-style:normal;font-weight:normal;font-size:17.0667px;line-height:1.25;font-family:sans-serif;fill:#000000;fill-opacity:1;stroke:none;stroke-width:0.64"
       x="26.278275"
       y="18.78805"
       id="text2191"><tspan
         sodipodi:role="line"
         id="tspan2189"
         x="26.278275"
         y="18.78805"
         style="font-style:normal;font-variant:normal;font-weight:normal;font-stretch:normal;font-size:17.0667px;font-family:'Noto Sans';-inkscape-font-specification:'Noto Sans';stroke-width:0.64">Add to calendar</tspan></text>
  </g>
</svg>
