<?xml version="1.0" encoding="UTF-8" standalone="no"?>
<svg
   xmlns:dc="http://purl.org/dc/elements/1.1/"
   xmlns:cc="http://creativecommons.org/ns#"
   xmlns:rdf="http://www.w3.org/1999/02/22-rdf-syntax-ns#"
   xmlns:svg="http://www.w3.org/2000/svg"
   xmlns="http://www.w3.org/2000/svg"
   xmlns:sodipodi="http://sodipodi.sourceforge.net/DTD/sodipodi-0.dtd"
   xmlns:inkscape="http://www.inkscape.org/namespaces/inkscape"
   inkscape:export-ydpi="500"
   inkscape:export-xdpi="500"
   inkscape:export-filename="C:\Users\atsyp\YandexDisk\GIT\megapolis\content\authors\admin\avatar.png"
   width="323.28836mm"
   height="323.28836mm"
   viewBox="0 0 323.28836 323.28836"
   version="1.1"
   id="svg975"
   inkscape:version="1.0 (4035a4fb49, 2020-05-01)"
   sodipodi:docname="avatar.svg">
  <defs
     id="defs969">
    <clipPath
       clipPathUnits="userSpaceOnUse"
       id="clipPath2695">
      <circle
         r="160.38618"
         cy="1287.0404"
         cx="-71.185394"
         id="circle2697"
         style="opacity:0.388889;fill:#999999;stroke:#000000;stroke-width:0.216065;stroke-dashoffset:0.901417" />
    </clipPath>
  </defs>
  <sodipodi:namedview
     id="base"
     pagecolor="#ffffff"
     bordercolor="#666666"
     borderopacity="1.0"
     inkscape:pageopacity="0.0"
     inkscape:pageshadow="2"
     inkscape:zoom="0.31999941"
     inkscape:cx="550.725"
     inkscape:cy="552.26673"
     inkscape:document-units="mm"
     inkscape:current-layer="layer1"
     inkscape:document-rotation="0"
     showgrid="false"
     inkscape:window-width="1366"
     inkscape:window-height="705"
     inkscape:window-x="-8"
     inkscape:window-y="-8"
     inkscape:window-maximized="1"
     fit-margin-top="0"
     fit-margin-left="0"
     fit-margin-right="0"
     fit-margin-bottom="0" />
  <metadata
     id="metadata972">
    <rdf:RDF>
      <cc:Work
         rdf:about="">
        <dc:format>image/svg+xml</dc:format>
        <dc:type
           rdf:resource="http://purl.org/dc/dcmitype/StillImage" />
        <dc:title />
      </cc:Work>
    </rdf:RDF>
  </metadata>
  <g
     inkscape:label="Слой 1"
     inkscape:groupmode="layer"
     id="layer1"
     transform="translate(66.394185,39.179898)">
    <g
       id="g2685"
       transform="translate(166.43539,-1164.5762)"
       clip-path="url(#clipPath2695)">
      <path
         sodipodi:nodetypes="cssssssssssssssssssssssccssssssssssscssscssssscc"
         style="fill:#808080;stroke-width:0.254"
         d="m -42.953795,1370.1918 c 0.8382,0.3039 2.15265,0.7272 2.921,0.9408 3.00649,0.8357 7.27651,1.9062 8.001,2.0058 0.4191,0.058 1.96215,0.3285 3.429,0.6019 4.17916,0.7791 8.04235,1.0986 14.224,1.1764 5.9836002,0.075 8.4738201,-0.1053 12.3933602,-0.8987 6.20851,-1.2568 8.93046,-3.4325 7.57039,-6.0511 -0.8191701,-1.5772 -4.4579001,-3.4051 -11.8061501,-5.9309 -9.2080601,-3.1652 -11.5484701,-4.6012 -9.5901301,-5.8843 1.52377,-0.9984 3.40586,-1.2677 8.6715301,-1.2406 2.7940001,0.014 6.68020011,0.149 8.636,0.2991 5.4284401,0.4166 15.0259999,0.7801 17.0179999,0.6446 0.9779,-0.066 2.70889,-0.1804 3.84665,-0.2531 4.23518,-0.2705 8.40825,-1.3721 9.40866,-2.4838 1.05783,-1.1754 0.91565,-1.6509 -1.31119,-4.3848 -0.63202,-0.776 -1.14912,-1.471 -1.14912,-1.5446 0,-0.9465 2.15175,-2.108 4.20512,-2.2699 0.70627,-0.056 1.70273,-0.2761 2.21434,-0.4899 0.51162,-0.2138 1.17236,-0.3887 1.4683,-0.3887 0.49118,0 3.23515,-0.679 5.24575,-1.2981 0.447981,-0.1379 1.01948,-0.2909 1.27,-0.3399 0.74723,-0.1463 5.46566,-2.2158 6.42448,-2.8179 1.77846,-1.1167 2.50945,-2.5353 2.52886,-4.9077 0.0145,-1.7692 -0.88433,-3.457 -2.4858,-4.668 -12.244559,-11.9553 -13.090918,-8.5127 -0.26151,3.2026 0.69983,1.1135 0.5135,2.7463 -0.42522,3.7261 -1.65317,1.7255 -5.33223,2.8387 -19.29532,5.838 -5.75296,1.2357 -7.84469,2.0988 -8.4192,3.4738 -0.29185,0.6985 -0.30909,1.0637 -0.0826,1.7499 0.15741,0.477 0.45554,0.8672 0.6625,0.8672 0.20696,0 0.31305,0.1024 0.23576,0.2274 -0.07729,0.1251 0.0375,0.2958 0.25511,0.3792 0.2176,0.084 0.3245,0.267 0.23755,0.4076 -0.087,0.1407 -0.0303,0.2558 0.12589,0.2558 0.15619,0 0.21768,0.1072 0.13665,0.2384 -0.081,0.1311 0.0551,0.3563 0.302511,0.5003 0.295239,0.1719 0.33139,0.2645 0.105159,0.2695 -0.20678,0 -0.28384,0.1664 -0.19262,0.4041 0.22747,0.5927 -1.58703,1.292 -4.2887,1.6527 -2.40921,0.3216 -8.06648,0.2408 -20.9549997,-0.2996 -10.2229703,-0.4286 -11.9279603,-0.4368 -14.6416303,-0.07 -9.97088,1.3478 -11.63484,4.8899 -3.9245,8.3541 1.54997,0.6966 2.81813,1.3528 2.81813,1.4583 0,0.1057 0.17593,0.1922 0.39095,0.1922 0.75752,0 8.3904302,2.6253 9.8505802,3.3881 1.89887,0.992 2.82013,2.0321 2.43583,2.7502 -1.17973,2.2043 -11.5002602,2.9086 -20.2973602,1.3853 -18.433796,4.0409 -54.416131,-0.9202 -17.90701,-0.1678 z"
         id="path2655" />
      <path
         id="path2597"
         d="m -17.832217,1451.4317 c -15.90061,-4.6075 -27.85584,-10.8553 -34.828,-18.201 -7.62453,-8.033 -8.70907,-15.569 -3.08746,-21.4533 2.27386,-2.3802 6.67479,-5.4126 7.85518,-5.4126 0.24162,0 0.50224,-0.1018 0.57916,-0.2263 0.30607,-0.4952 4.79536,-2.4342 11.00565,-4.7536 13.85723,-5.1752 17.29269,-6.8776 20.64581,-10.2308 4.46864,-4.4686 3.45551,-8.9133 -2.98082,-13.0769 -7.53067,-4.8716 -22.72848,-7.1821 -30.30059,-4.6067 -2.11114,0.718 -2.90115,1.1761 -3.80699,2.2073 -0.34543,0.3933 -0.77406,0.715 -0.9525,0.715 -0.17844,0 -0.32443,0.1062 -0.32443,0.2359 0,0.1297 -0.16638,0.4022 -0.36973,0.6056 -0.46657,0.4665 -1.20457,1.6855 -2.10395,3.475 -0.38573,0.7674 -0.78823,1.5104 -0.89445,1.651 -0.10622,0.1405 -0.74763,1.1128 -1.42536,2.1605 -1.44385,2.2322 -3.52319,4.6462 -4.82567,5.6024 -0.50701,0.3722 -1.24206,0.9785 -1.63343,1.3472 -0.39137,0.3687 -0.82,0.6704 -0.9525,0.6704 -0.1325,0 -0.24091,0.1143 -0.24091,0.254 0,0.1397 -0.10433,0.254 -0.23184,0.254 -0.1275,0 -0.84188,0.4038 -1.58749,0.8973 -0.74562,0.4935 -2.67012,1.5657 -4.27667,2.3825 -13.54658,6.888 -34.396093,9.7202 -52.399403,7.1178 -10.43663,-1.5086 -18.25511,-5.1599 -20.38924,-9.5219 -0.5674,-1.1597 -0.66023,-1.635 -0.56811,-2.9087 0.0909,-1.2571 0.28436,-1.7753 1.10994,-2.9738 3.46612,-5.0316 10.39764,-7.6032 30.33681,-11.2549 4.67995,-0.857 9.9949,-1.901 11.811,-2.3198 10.948853,-2.5248 16.319843,-5.8399 14.078423,-8.6894 -2.28939,-2.9105 -10.04649,-3.9413 -17.634423,-2.3434 -3.19553,0.673 -4.88015,1.2077 -12.446,3.9501 -0.8382,0.3039 -2.15265,0.7272 -2.921,0.9408 -3.00649,0.8357 -7.27651,1.9062 -8.001,2.0058 -0.4191,0.058 -1.96215,0.3285 -3.429,0.6019 -4.17916,0.7791 -8.04235,1.0986 -14.224,1.1764 -5.9836,0.075 -8.47382,-0.1053 -12.39336,-0.8987 -6.20851,-1.2568 -8.93046,-3.4325 -7.57039,-6.0511 0.81917,-1.5772 4.4579,-3.4051 11.80615,-5.9309 9.20806,-3.1652 11.54847,-4.6012 9.59013,-5.8843 -1.52377,-0.9984 -3.40586,-1.2677 -8.67153,-1.2406 -2.794,0.014 -6.6802,0.149 -8.636,0.2991 -5.42844,0.4166 -15.026,0.7801 -17.018,0.6446 -0.9779,-0.066 -2.70889,-0.1804 -3.84665,-0.2531 -4.23518,-0.2705 -8.40825,-1.3721 -9.40866,-2.4838 -1.05783,-1.1754 -0.91565,-1.6509 1.31119,-4.3848 0.63202,-0.776 1.14912,-1.471 1.14912,-1.5446 0,-0.9465 -2.15175,-2.108 -4.20512,-2.2699 -0.70627,-0.056 -1.70273,-0.2761 -2.21434,-0.4899 -0.51162,-0.2138 -1.17236,-0.3887 -1.4683,-0.3887 -0.49118,0 -3.23515,-0.679 -5.24575,-1.2981 -0.44798,-0.1379 -1.01948,-0.2909 -1.27,-0.3399 -0.74723,-0.1463 -5.46566,-2.2158 -6.42448,-2.8179 -1.77846,-1.1167 -2.50945,-2.5353 -2.52886,-4.9077 -0.0145,-1.7692 0.88433,-3.457 2.4858,-4.668 1.25054,-0.9457 1.34968,-1.0007 11.34606,-6.2955 10.03323,-5.3143 13.35943,-7.6263 18.8014,-13.0684 4.04517,-4.0453 6.91896,-7.3199 10.94015,-12.4661 l 2.79007,-3.5707 -0.21407,4.3222 c -0.0376,-0.038 -0.75218,0.8035 -1.58796,1.869 -4.65382,5.9333 -12.32915,13.951 -16.07791,16.795 -3.0523,2.3157 -7.05537,4.8007 -11.64953,7.2318 -13.31507,7.046 -13.20314,6.9793 -14.0867,8.3853 -0.69983,1.1135 -0.5135,2.7463 0.42522,3.7261 1.65317,1.7255 5.33223,2.8387 19.29532,5.838 5.75296,1.2357 7.84469,2.0988 8.4192,3.4738 0.29185,0.6985 0.30909,1.0637 0.0826,1.7499 -0.15741,0.477 -0.45554,0.8672 -0.6625,0.8672 -0.20696,0 -0.31305,0.1024 -0.23576,0.2274 0.0773,0.1251 -0.0375,0.2957 -0.25511,0.3792 -0.2176,0.083 -0.3245,0.267 -0.23755,0.4076 0.087,0.1407 0.0303,0.2558 -0.12589,0.2558 -0.15619,0 -0.21768,0.1073 -0.13665,0.2384 0.081,0.1311 -0.0551,0.3563 -0.30251,0.5003 -0.29524,0.1719 -0.33139,0.2645 -0.10516,0.2696 0.20678,0 0.28384,0.1663 0.19262,0.404 -0.22747,0.5927 1.58703,1.292 4.2887,1.6527 2.40921,0.3216 8.06648,0.2408 20.955,-0.2996 10.22297,-0.4286 11.92796,-0.4368 14.64163,-0.07 9.97088,1.3478 11.63484,4.8899 3.9245,8.3542 -1.54997,0.6965 -2.81813,1.3527 -2.81813,1.4583 0,0.1056 -0.17593,0.1921 -0.39095,0.1921 -0.75752,0 -8.39043,2.6253 -9.85058,3.3881 -1.89887,0.992 -2.82013,2.0321 -2.43583,2.7502 1.17973,2.2043 11.50026,2.9087 20.29736,1.3853 4.75947,-0.8242 7.46649,-1.5356 14.605,-3.8384 10.60527,-3.4212 14.21982,-4.074 22.225003,-4.0143 11.64277,0.087 20.89993,3.0881 22.12364,7.1725 1.01107,3.3747 -3.37894,6.9456 -12.01737,9.7754 -3.09896,1.0151 -9.90591,2.7164 -13.281273,3.3194 -1.2573,0.2247 -3.3147,0.6268 -4.572,0.8937 -1.2573,0.2669 -3.6576,0.7255 -5.334,1.0191 -5.33915,0.9351 -8.82729,1.7268 -11.11202,2.5218 -1.22212,0.4252 -2.37863,0.7732 -2.57003,0.7732 -0.53271,0 -3.64945,1.7985 -4.75153,2.7418 -1.89333,1.6206 -1.78074,3.5206 0.30556,5.1565 1.49952,1.1758 2.28885,1.5785 4.60629,2.3501 8.58762,2.8593 21.99268,2.7667 33.431493,-0.2309 5.79017,-1.5173 10.9523,-3.6888 15.01152,-6.3147 2.61633,-1.6925 6.39099,-5.5765 8.65116,-8.9017 3.79535,-5.5838 7.40498,-8.2459 13.07803,-9.645 3.02953,-0.7472 8.98236,-1.4126 12.6208,-1.4108 11.73087,0.01 25.89889,3.2631 34.4877203,7.9293 10.91877,5.9319 13.40822,13.2688 6.74852,19.8893 -2.10381,2.0914 -3.35142,3.1681 -3.67114,3.1681 -0.12596,0 -0.29482,0.1714 -0.37523,0.381 -0.0804,0.2095 -0.30094,0.381 -0.49007,0.381 -0.34926,0 -3.03983,1.3619 -3.7360803,1.8911 -0.34476,0.2621 -2.12412,1.1157 -7.93027,3.8046 -1.0787,0.4996 -2.06454,0.9083 -2.19075,0.9083 -0.34042,0 -5.96838,2.3182 -6.24928,2.5741 -0.13271,0.1209 -0.38198,0.2199 -0.55392,0.2199 -0.49116,0 -6.5317,2.9275 -8.155,3.9522 -3.64318,2.2999 -5.6542,5.2174 -5.65457,8.2035 -7.7e-4,6.2195 9.18171,13.0242 22.80461,16.8994 3.49077,0.993 8.40243,2.0604 11.5797803,2.5166 l 2.2536,0.3235 -4.76693,5.3884 c -2.6218103,2.9636 -4.8932303,5.383 -5.0476003,5.3764 -0.15436,-0.01 -1.65227,-0.4094 -3.32867,-0.8951 z"
         style="fill:#808080;stroke-width:0.254"
         sodipodi:nodetypes="ssssssssssssssssssssssssssssssssssssssssssssssssssssssssssccssssssssssssssscssscsssssssssssssssssssssscsssssssssssssscscss" />
      <path
         sodipodi:nodetypes="cscccccccccccccccccccccccccccsssccccccccccccccccccccccc"
         class="fil0"
         d="m -48.189487,1206.9054 c 0,-3.6616 2.1289,-6.7272 5.19446,-8.1748 v 0 l 0.51093,-0.1703 c 1.27734,-0.5961 1.10703,-2.2992 1.10703,-2.2992 l -2.55466,-6.3015 c 0.51093,-1.5328 2.04373,-2.0437 2.04373,-2.0437 v -1.5328 c 0,0 -1.5328,-2.1289 -1.02187,-5.1945 0,-0.4257 2.29918,-30.4003 2.55466,-33.7214 -0.76641,-0.3406 -1.19217,-1.107 -1.19217,-1.9586 l 0.085,-0.6812 c -6.47177,-3.4914 -3.32104,-9.1968 -1.87342,-9.878 l 0.25557,0.2556 c -0.25557,0.1702 -0.76641,0.8515 -1.10703,1.8734 h 3.66168 l 1.19218,-3.832 1.19217,3.832 h 3.74683 c -0.34063,-1.0219 -0.93673,-1.7031 -1.10704,-1.8734 l 0.25557,-0.2556 c 1.36248,0.6812 4.59835,6.4718 -1.95858,9.9632 l 0.0853,0.596 c 0,0.8516 -0.42579,1.5328 -1.10704,1.9586 0.25557,3.0656 2.46952,33.2957 2.55466,33.7214 0.42579,3.0656 -1.107,5.1945 -1.107,5.1945 v 1.5328 c 0,0 1.61793,0.5109 2.12886,2.0437 l -2.63979,6.3015 c 0,0 -0.0853,1.7031 1.19217,2.2992 v 0 c 3.4062,1.2773 5.79052,4.5132 5.79052,8.3451 v 0 7.1531 h 3.91714 v 11.5811 h -25.80198 v -11.5811 h 4.00228 z m 3.91714,-69.6568 2.98042,2.1288 -1.02186,2.9805 c -2.21404,-1.7883 -2.04373,-4.4281 -1.95856,-5.1093 z m 9.878,-0.085 c 0.085,0.5961 0.42576,3.4062 -1.95858,5.1945 l -1.02186,-2.9805 z m -4.939,6.1312 0.68124,0.1702 c 0.76639,-0.2555 1.36249,-0.5109 1.87342,-0.8515 l -2.55466,-1.7883 -2.55465,1.7883 c 0.51093,0.3406 1.107,0.5961 1.87341,0.8515 z"
         id="path2599"
         inkscape:connector-curvature="0"
         style="clip-rule:evenodd;fill:#4d4d4d;fill-rule:evenodd;stroke-width:0.0851552;image-rendering:optimizeQuality;shape-rendering:geometricPrecision;text-rendering:geometricPrecision" />
      <path
         d="m -33.202347,1327.6865 v -97.3636 h 4.00234 v 97.3636 z"
         style="clip-rule:evenodd;fill:#4d4d4d;fill-rule:evenodd;stroke-width:0.0851551;image-rendering:optimizeQuality;shape-rendering:geometricPrecision;text-rendering:geometricPrecision"
         id="path2601" />
      <path
         d="m -41.121757,1327.6865 v -97.3636 h 4.0876 v 97.3636 z"
         style="clip-rule:evenodd;fill:#4d4d4d;fill-rule:evenodd;stroke-width:0.0851551;image-rendering:optimizeQuality;shape-rendering:geometricPrecision;text-rendering:geometricPrecision"
         id="path2603" />
      <path
         d="m -48.955907,1327.6865 v -97.3636 h 4.00234 v 97.3636 z"
         style="clip-rule:evenodd;fill:#4d4d4d;fill-rule:evenodd;stroke-width:0.0851551;image-rendering:optimizeQuality;shape-rendering:geometricPrecision;text-rendering:geometricPrecision"
         id="path2605" />
      <path
         d="m -62.495657,1327.6865 v -97.3636 h 9.70794 v 97.3636 z"
         style="clip-rule:evenodd;fill:#4d4d4d;fill-rule:evenodd;stroke-width:0.0851551;image-rendering:optimizeQuality;shape-rendering:geometricPrecision;text-rendering:geometricPrecision"
         id="path2607" />
      <path
         d="m -83.869537,1327.6865 v -32.9861 h 16.94573 v 32.9861 z"
         style="clip-rule:evenodd;fill:#4d4d4d;fill-rule:evenodd;stroke-width:0.0851551;image-rendering:optimizeQuality;shape-rendering:geometricPrecision;text-rendering:geometricPrecision"
         id="path2609" />
      <path
         d="m 38.923993,1327.6865 v -57.3407 h 7.7494 v 57.3407 z"
         style="clip-rule:evenodd;fill:#4d4d4d;fill-rule:evenodd;stroke-width:0.0851551;image-rendering:optimizeQuality;shape-rendering:geometricPrecision;text-rendering:geometricPrecision"
         id="path2611" />
      <path
         d="m 12.866673,1327.6865 v -57.3407 h 10.90011 v -6.642 h 11.41067 v 63.9827 z"
         style="clip-rule:evenodd;fill:#4d4d4d;fill-rule:evenodd;stroke-width:0.0851551;image-rendering:optimizeQuality;shape-rendering:geometricPrecision;text-rendering:geometricPrecision"
         id="path2613" />
      <path
         d="m -9.8699267,1327.6865 v -32.9861 h 18.13843 v 32.9861 z"
         style="clip-rule:evenodd;fill:#4d4d4d;fill-rule:evenodd;stroke-width:0.0851551;image-rendering:optimizeQuality;shape-rendering:geometricPrecision;text-rendering:geometricPrecision"
         id="path2615" />
      <path
         d="m -14.297557,1230.3229 v 59.7793 37.5843 h -11.07013 v -97.3636 z"
         style="clip-rule:evenodd;fill:#4d4d4d;fill-rule:evenodd;stroke-width:0.0851551;image-rendering:optimizeQuality;shape-rendering:geometricPrecision;text-rendering:geometricPrecision"
         id="path2617" />
      <g
         id="g2649"
         transform="matrix(-1,0,0,1,299.16622,629.73368)"
         style="fill:#000000">
        <g
           transform="translate(-119.0625)"
           id="g2625"
           style="fill:#000000">
          <path
             style="fill:#000000;stroke-width:1.11905"
             id="path2619"
             d="m 506.52642,697.95279 -0.0237,-100.54892 h 10.74859 l 0.47247,100.54892 c -4.70212,0.0149 -6.55039,0 -11.19734,0 z"
             sodipodi:nodetypes="ccccc" />
          <path
             style="fill:#000000;stroke-width:1.11905"
             id="path2621"
             d="m 504.94509,539.3416 c 15.6817,0 15.18551,16.24503 10.03408,19.85195 3.97263,1.85069 3.39945,8.11491 0.29241,9.68695 a 5.8003745,5.8003745 0 0 1 -1.13696,10.72476 c 1.49953,1.99918 -0.33023,5.17437 -2.92699,5.17437 a 3.355361,3.355361 0 0 1 -2.13067,-6.08304 5.8164888,5.8164888 0 0 1 -2.38168,-4.68312 c -8.27269,1.6064 -12.73826,-7.15386 -9.36645,-12.34223 -10.21547,-7.69716 -4.4818,-22.32964 7.61626,-22.32964 z" />
          <path
             style="fill:#000000;stroke-width:1.11905"
             id="path2623"
             d="m 506.23871,595.12839 a 2.6844902,2.6844902 0 1 1 0,-5.36663 h 11.27645 a 2.6844902,2.6844902 0 1 1 0,5.36663 z" />
        </g>
        <path
           d="m 411.0083,697.67012 c 0.68956,-0.90319 1.35685,-1.81723 1.98228,-2.75029 11.23203,-16.75599 12.37547,-37.80645 12.42997,-44.68246 h 23.43191 a 98.842374,98.842374 0 0 0 2.40987,20.4003 c -3.31988,9.47052 -8.39825,19.12456 -16.14588,27.03289 z"
           id="path2627"
           style="fill:#000000;stroke-width:1.11905" />
        <rect
           transform="scale(-1,1)"
           height="5.0778036"
           rx="0.95432627"
           width="28.774145"
           x="-451.58798"
           y="642.83954"
           id="rect2629"
           style="fill:#000000;stroke-width:1.11905" />
        <path
           d="m 441.18797,697.67012 c 19.43612,-22.58244 20.82553,-54.7754 20.8055,-63.82012 h 27.96071 c 0.0112,8.07865 1.23375,36.09788 16.54852,57.62125 a 65.167682,65.167682 0 0 0 4.981,6.19887 z"
           id="path2631"
           style="fill:#000000;stroke-width:1.11905" />
        <path
           d="m 430.82198,593.17464 c 15.6817,0 15.18552,16.24503 10.03408,19.85196 3.97263,1.85068 3.39945,8.1149 0.29241,9.68694 a 5.8003745,5.8003745 0 0 1 -1.13696,10.72476 c 1.49953,1.99918 -0.33023,5.17438 -2.92699,5.17438 a 3.3552491,3.3552491 0 0 1 -2.13067,-6.08294 5.8171602,5.8171602 0 0 1 -2.38123,-4.68378 c -8.27269,1.60639 -12.73826,-7.15387 -9.36645,-12.34212 -10.21559,-7.69672 -4.4818,-22.3292 7.61581,-22.3292 z"
           id="path2633"
           style="fill:#000000;stroke-width:1.11905" />
        <g
           id="g2639"
           style="fill:#000000">
          <path
             style="fill:#000000;stroke-width:1.11905"
             id="path2635"
             d="m 404.58506,697.67012 a 10.150571,10.150571 0 0 0 -2.34307,0.28267 V 623.0816 h 10.74859 v 71.83823 c -0.62543,0.93306 -1.29272,1.8471 -1.98228,2.75029 z" />
          <path
             style="fill:#000000;stroke-width:1.11905"
             id="path2637"
             d="m 401.97812,620.7984 a 2.6844902,2.6844902 0 1 1 0,-5.36652 h 11.27645 a 2.6844902,2.6844902 0 1 1 0,5.36652 z" />
        </g>
        <path
           d="m 493.11124,625.21798 h -33.55081 a 1.1917888,1.1917888 0 0 0 -1.19179,1.19179 v 3.95774 a 1.1917888,1.1917888 0 0 0 1.19179,1.19179 h 33.5507 a 1.1919007,1.1919007 0 0 0 1.1919,-1.1919 v -3.95763 a 1.1917888,1.1917888 0 0 0 -1.19179,-1.19179 z"
           id="path2641"
           style="fill:#000000;stroke-width:1.11905" />
        <path
           style="fill:#000000;stroke-width:1.11905"
           id="path2643"
           d="m 411.0083,697.67012 c 0.68956,-0.90319 1.35685,-1.81723 1.98228,-2.75029 11.23203,-16.75599 12.37547,-37.80645 12.42997,-44.68246 h 23.43191 a 98.842374,98.842374 0 0 0 2.40987,20.4003 c -3.31988,9.47052 -8.39825,19.12456 -16.14588,27.03289 z" />
        <path
           style="fill:#000000;stroke-width:1.11905"
           id="path2645"
           d="m 441.18797,697.67012 c 19.43612,-22.58244 20.82553,-54.7754 20.8055,-63.82012 h 27.96071 c 0.0112,8.07865 1.23375,36.09788 16.54852,57.62125 a 65.167682,65.167682 0 0 0 4.981,6.19887 z" />
        <path
           style="fill:#000000;stroke-width:1.11905"
           id="path2647"
           d="m 493.11124,625.21798 h -33.55081 a 1.1917888,1.1917888 0 0 0 -1.19179,1.19179 v 3.95774 a 1.1917888,1.1917888 0 0 0 1.19179,1.19179 h 33.5507 a 1.1919007,1.1919007 0 0 0 1.1919,-1.1919 v -3.95763 a 1.1917888,1.1917888 0 0 0 -1.19179,-1.19179 z" />
      </g>
    </g>
    <ellipse
       ry="160.25214"
       rx="158.73286"
       cy="122.46428"
       cx="95.249992"
       id="path861"
       style="fill:none;stroke:#000000;stroke-width:2.58938;stroke-dashoffset:0.901417" />
  </g>
</svg>
