<?xml version="1.0" encoding="UTF-8" standalone="no"?>
<!-- Created with Inkscape (http://www.inkscape.org/) -->

<svg
   xmlns:dc="http://purl.org/dc/elements/1.1/"
   xmlns:cc="http://creativecommons.org/ns#"
   xmlns:rdf="http://www.w3.org/1999/02/22-rdf-syntax-ns#"
   xmlns:svg="http://www.w3.org/2000/svg"
   xmlns="http://www.w3.org/2000/svg"
   xmlns:sodipodi="http://sodipodi.sourceforge.net/DTD/sodipodi-0.dtd"
   xmlns:inkscape="http://www.inkscape.org/namespaces/inkscape"
   width="105.84048mm"
   height="105.78853mm"
   viewBox="0 0 105.84048 105.78853"
   version="1.1"
   id="svg8"
   inkscape:version="0.92.3 (2405546, 2018-03-11)"
   sodipodi:docname="iahs_logo.svg">
  <defs
     id="defs2" />
  <sodipodi:namedview
     id="base"
     pagecolor="#ffffff"
     bordercolor="#666666"
     borderopacity="1.0"
     inkscape:pageopacity="0.0"
     inkscape:pageshadow="2"
     inkscape:zoom="0.49497475"
     inkscape:cx="208.58981"
     inkscape:cy="154.81662"
     inkscape:document-units="mm"
     inkscape:current-layer="layer1"
     showgrid="false"
     fit-margin-top="0"
     fit-margin-left="0"
     fit-margin-right="0"
     fit-margin-bottom="0"
     inkscape:window-width="1366"
     inkscape:window-height="705"
     inkscape:window-x="-8"
     inkscape:window-y="-8"
     inkscape:window-maximized="1" />
  <metadata
     id="metadata5">
    <rdf:RDF>
      <cc:Work
         rdf:about="">
        <dc:format>image/svg+xml</dc:format>
        <dc:type
           rdf:resource="http://purl.org/dc/dcmitype/StillImage" />
        <dc:title></dc:title>
      </cc:Work>
    </rdf:RDF>
  </metadata>
  <g
     inkscape:label="Layer 1"
     inkscape:groupmode="layer"
     id="layer1"
     transform="translate(-42.53434,-10.180915)">
    <path
       style="fill:#f20008;stroke-width:0.26458335;fill-opacity:1"
       d="m 89.505019,115.89086 c -0.145521,-0.0449 -0.978959,-0.23055 -1.852084,-0.41256 -15.262583,-3.18164 -28.311493,-11.63761 -35.715291,-23.144249 -4.919249,-7.64528 -7.518687,-15.31298 -8.744893,-25.79526 -0.212682,-1.81812 -0.386694,-3.5333 -0.386694,-3.8115 0,-0.49543 0.550907,-0.50363 26.789065,-0.3985 l 26.789063,0.10734 -0.085,-1.984376 c -0.10227,-2.389098 -0.9378,-8.126345 -1.5142,-10.397457 C 91.407985,36.748116 83.590126,25.824351 72.307101,18.646261 68.326342,16.113762 63.321798,13.813871 58.151892,12.141084 55.605277,11.317095 53.283558,10.54703 52.992516,10.429828 52.701475,10.312625 64.038662,10.208674 78.186265,10.198825 l 25.722915,-0.01791 3.77813,0.904348 c 6.81641,1.631602 11.94241,3.69694 17.10126,6.89034 6.73195,4.167168 12.54743,9.852179 17.00271,16.621263 1.81267,2.754058 4.66494,8.433821 5.78476,11.519289 l 0.79878,2.200862 v 7.415102 7.415102 l -25.95301,-0.19557 -25.953025,-0.19557 0.18335,1.55982 c 0.35438,3.01474 1.44148,8.46894 2.26209,11.34939 1.01513,3.56321 2.915775,8.42065 3.185835,8.14198 0.21152,-0.21827 0.88177,-2.08506 3.54074,-9.86177 0.92048,-2.69213 1.84532,-5.37104 2.0552,-5.95312 l 0.38159,-1.05834 2.11305,-0.0761 2.11305,-0.0761 1.7895,5.23551 c 0.98422,2.87953 2.15054,6.33431 2.59182,7.67727 0.44128,1.34297 0.90591,2.37774 1.03252,2.2995 0.12661,-0.0782 0.2302,-3.53397 0.2302,-7.67938 v -7.5371 l 1.78594,0.0782 1.78594,0.0782 0.0508,4.10105 c 0.0279,2.25557 0.0577,5.00409 0.0661,6.10783 l 0.0154,2.0068 1.12448,0.0165 c 2.14031,0.0313 2.19059,0.0485 2.49375,0.85166 0.66973,1.77432 4.15056,2.53065 6.12016,1.32981 0.79279,-0.48335 0.86725,-0.63591 0.79375,-1.62621 -0.11081,-1.49317 -0.81416,-1.94654 -4.04985,-2.61052 -3.21766,-0.66027 -4.82704,-1.41187 -5.64491,-2.63624 -0.52873,-0.79154 -0.60448,-1.18379 -0.52154,-2.70058 0.18721,-3.42333 2.40563,-5.21141 6.48725,-5.22879 3.92636,-0.0167 6.51667,1.82448 6.75302,4.80007 l 0.0699,0.88034 -1.5875,0.0697 c -1.55324,0.0682 -1.59606,0.0514 -1.98437,-0.7776 -0.62369,-1.33149 -1.63624,-1.919 -3.30729,-1.919 -1.87333,0 -2.87557,0.6841 -2.99159,2.04196 -0.1024,1.19847 0.46708,1.6125 3.00892,2.18763 5.44967,1.23305 6.39975,1.68627 7.15113,3.41131 0.30683,0.70441 0.35276,0.0914 0.36181,-4.82762 l 0.0103,-5.63449 1.78594,0.0782 1.78594,0.0782 0.0743,3.24115 0.0743,3.24115 h 3.291 3.291 l 0.0743,-3.24115 0.0743,-3.24115 0.99219,-0.0821 0.99219,-0.0821 v 8.89548 8.89549 l -0.99219,-0.0821 -0.99219,-0.0821 -0.0732,-3.9026 -0.0732,-3.9026 h -3.30021 -3.30022 l -0.0313,3.63802 c -0.0172,2.00091 -0.0179,3.72522 -0.002,3.8318 0.0473,0.30759 -1.09689,0.50987 -2.36959,0.41894 l -1.16937,-0.0836 -0.13229,-1.98437 -0.13229,-1.98438 -0.34984,0.98793 c -0.45312,1.27958 -2.12029,2.69353 -3.69613,3.13474 -1.68601,0.47206 -5.23824,0.43274 -6.40507,-0.0709 -1.29974,-0.561 -2.57751,-1.69929 -3.17342,-2.82702 -0.55112,-1.04297 -0.55187,-1.04124 -0.62419,1.42109 l -0.0389,1.32291 -3.33472,0.0738 c -3.75629,0.0831 -3.62827,0.14206 -4.32445,-1.99199 l -0.45315,-1.38907 h -3.23124 -3.23123 l -0.49619,1.45976 c -0.27291,0.80287 -0.6502,1.58758 -0.83844,1.7438 -0.19008,0.15776 -1.04602,0.24396 -1.92514,0.19389 l -1.5829,-0.0902 1.42041,2.71861 c 7.1346,13.655259 20.83086,24.293469 36.65018,28.467089 1.29954,0.34286 -1.31843,0.38427 -24.47396,0.38709 -14.26105,0.002 -26.048241,-0.0336 -26.193761,-0.0785 z M 112.39148,77.806841 c 0,-0.27742 -1.94024,-5.8697 -2.097,-6.04411 -0.0981,-0.10912 -0.55263,1.0245 -1.01011,2.51915 -0.45748,1.49465 -0.91077,2.92338 -1.00731,3.17496 -0.15745,0.41031 0.0453,0.45741 1.96945,0.45741 1.17974,0 2.14497,-0.0483 2.14497,-0.10741 z M 80.969107,59.506544 c -1.483976,-0.730944 -2.448174,-1.801686 -2.936925,-3.261458 -0.580734,-1.734508 -0.482246,-1.878749 1.282827,-1.878749 1.554975,0 1.590908,0.01667 1.964362,0.910456 0.701733,1.679485 3.09408,2.409227 5.517732,1.683083 1.299975,-0.389483 1.876349,-1.449811 1.451137,-2.66958 -0.329888,-0.946311 -1.080209,-1.28093 -4.482534,-1.999054 -2.908824,-0.613963 -3.724543,-0.974638 -4.82712,-2.134349 -1.610897,-1.694368 -1.072203,-5.461561 1.002372,-7.009794 1.236831,-0.923037 2.702454,-1.300314 4.938588,-1.271276 3.327212,0.0432 5.473423,1.382141 6.318139,3.941644 0.53779,1.629526 0.31442,1.934287 -1.417698,1.934287 -1.429689,0 -1.471531,-0.02154 -1.926532,-0.992188 -0.800542,-1.707766 -3.501869,-2.482178 -5.340972,-1.531141 -0.839547,0.434147 -1.077257,0.882243 -1.077257,2.03068 0,0.672893 0.163021,0.857768 1.12448,1.275215 0.618463,0.268523 2.196041,0.697169 3.505729,0.952545 3.601249,0.702204 4.65464,1.283875 5.5857,3.084343 0.65063,1.258168 0.36178,3.68158 -0.60514,5.077177 -1.193277,1.7223 -2.826679,2.391789 -6.038893,2.475186 -2.390312,0.06206 -2.780282,0.0024 -4.037995,-0.617027 z M 42.604053,50.860608 c 0.0649,-8.19013 0.101674,-8.795113 0.532734,-8.764323 0.254661,0.01818 1.058333,0.04796 1.785937,0.06615 l 1.322917,0.03307 v 8.731251 8.73125 h -1.85565 -1.855651 z m 4.027348,8.334376 c 0.09779,-0.254662 1.13278,-3.201459 2.299986,-6.548438 1.167206,-3.34698 2.454365,-7.037917 2.860352,-8.202084 l 0.738159,-2.116667 2.113495,-0.07626 2.113495,-0.07626 0.564387,1.531472 c 0.874348,2.372556 5.32252,15.529749 5.325703,15.752827 0.0016,0.109141 -0.809658,0.198437 -1.8027,0.198437 h -1.805532 l -0.641864,-1.653652 -0.641865,-1.653646 h -3.160006 -3.160005 l -0.528959,1.653646 -0.52896,1.653645 h -1.961739 c -1.759664,0 -1.943425,-0.04769 -1.783947,-0.46302 z m 10.187002,-6.350001 c -0.03971,-0.745373 -2.084265,-5.943989 -2.211222,-5.622396 -0.490611,1.242769 -1.746956,5.179171 -1.746956,5.473592 0,0.255736 0.522934,0.347242 1.984375,0.347242 1.091406,0 1.979617,-0.0893 1.973803,-0.198438 z m 6.095989,-1.918229 v -8.731251 h 1.5875 c 0.873125,0 1.676797,-7.93e-4 1.785938,-0.0016 0.10914,-7.94e-4 0.257968,1.457616 0.330729,3.241146 l 0.132292,3.242784 h 3.307291 3.307292 l 0.132292,-3.268134 0.132292,-3.268131 1.719791,-0.02479 1.719792,-0.02477 0.06971,8.783016 0.06971,8.783016 h -1.85565 -1.85565 v -3.836458 -3.836459 h -3.439584 -3.439583 v 3.836459 3.836458 h -1.852079 -1.852083 v -8.73125 z"
       id="path826"
       inkscape:connector-curvature="0" />
  </g>
</svg>
