<?xml version="1.0" encoding="UTF-8"?>
<!DOCTYPE svg PUBLIC "-//W3C//DTD SVG 1.1//EN" "http://www.w3.org/Graphics/SVG/1.1/DTD/svg11.dtd">
<!-- Creator: CorelDRAW 2019 (64-Bit) -->
<svg xmlns="http://www.w3.org/2000/svg" xml:space="preserve" width="140.99mm" height="96.8066mm" version="1.1" style="shape-rendering:geometricPrecision; text-rendering:geometricPrecision; image-rendering:optimizeQuality; fill-rule:evenodd; clip-rule:evenodd"
viewBox="0 0 12734.47 8743.77"
 xmlns:xlink="http://www.w3.org/1999/xlink"
 xmlns:xodm="http://www.corel.com/coreldraw/odm/2003">
 <defs>
  <style type="text/css">
   <![CDATA[
    .fil0 {fill:#153466}
    .fil1 {fill:white;fill-rule:nonzero}
   ]]>
  </style>
 </defs>
 <g id="Слой_x0020_1">
  <metadata id="CorelCorpID_0Corel-Layer"/>
  <rect class="fil0" y="-0" width="12734.47" height="8743.77"/>
  <polygon class="fil1" points="4888.33,4371.88 4888.33,5396.52 4642.91,5396.52 4642.91,4703.42 4602.77,4703.42 4486.55,5072.17 4225.38,5072.17 4109.14,4703.42 4068.93,4703.42 4068.93,5396.52 3823.48,5396.52 3823.48,4371.88 4222.45,4371.88 4335.82,4743.56 4376.01,4743.56 4489.38,4371.88 "/>
  <polygon class="fil1" points="5605.86,4988.96 5605.86,5161.14 6138.25,5161.14 6138.25,5396.51 5338.92,5396.51 5338.92,4371.84 6125.33,4371.84 6125.33,4607.24 5605.86,4607.24 5605.86,4759.34 6001.85,4759.34 6001.85,4988.96 "/>
  <path class="fil1" d="M7446.66 4810.97l0 130.59c0,241.11 -131.96,473.52 -460.59,473.52 -327.19,0 -506.57,-212.37 -506.57,-530.85 0,-314.34 179.38,-530.99 506.57,-530.99 245.35,0 398.87,134.92 436.26,328.64l-275.56 0c-18.67,-61.76 -76.12,-93.35 -162.18,-93.35 -149.3,0 -232.41,116.26 -232.41,295.7 0,182.22 83.11,299.88 236.76,299.88 120.54,0 189.51,-68.89 193.7,-162.19l-198.06 0 0 -210.95 462.08 0z"/>
  <path class="fil1" d="M8127.22 4921.53l228.22 0 -81.84 -297.13 -63.14 0 -83.24 297.13zm627.19 474.94l-265.48 0 -74.62 -265.45 -344.42 0 -73.23 265.45 -259.72 0 307.12 -1024.59 403.26 0 307.09 1024.59z"/>
  <path class="fil1" d="M4746.29 6161.72l0 130.59c0,241.12 -132.04,473.53 -460.64,473.53 -327.23,0 -506.6,-212.36 -506.6,-530.93 0,-314.26 179.37,-530.88 506.6,-530.88 245.42,0 398.84,134.85 436.26,328.6l-275.56 0c-18.63,-61.71 -76.09,-93.31 -162.18,-93.31 -149.3,0 -232.51,116.24 -232.51,295.59 0,182.35 83.2,299.98 236.86,299.98 120.51,0 189.44,-68.92 193.68,-162.18l-198.03 0 0 -210.98 462.13 0z"/>
  <path class="fil1" d="M5622.35 6166.03c98.98,0 137.7,-38.8 137.7,-106.19 0,-68.86 -38.71,-104.7 -137.7,-104.7l-198.05 0 0 210.89 198.05 0zm35.85 -443.39c236.77,0 374.55,123.44 374.55,331.45 0,130.6 -51.66,225.4 -149.26,281.26l147.87 411.93 -266.98 0 -127.67 -358.79 -212.4 0 0 358.79 -266.96 0 0 -1024.65 500.85 0z"/>
  <path class="fil1" d="M6757.5 6272.29l228.24 0 -81.84 -297.11 -63.14 0 -83.26 297.11zm627.11 474.94l-265.42 0 -74.58 -265.44 -344.49 0 -73.19 265.44 -259.7 0 307.09 -1024.59 403.27 0 307.02 1024.59z"/>
  <polygon class="fil1" points="8655.32,5722.63 8655.32,6747.29 8335.37,6747.29 8016.84,6151.72 7976.57,6151.72 7976.57,6747.29 7739.87,6747.29 7739.87,5722.63 8059.83,5722.63 8378.44,6318.22 8418.56,6318.22 8418.56,5722.63 "/>
  <polygon class="fil1" points="9888.81,5958.03 9581.73,5958.03 9581.73,6747.24 9314.83,6747.24 9314.83,5958.03 9009.14,5958.03 9009.14,5722.65 9888.81,5722.65 "/>
  <path class="fil1" d="M10780.67 6018.27c-15.8,-68.92 -70.32,-91.84 -150.73,-91.84 -70.25,0 -130.6,27.2 -130.6,88.96 0,50.23 37.42,68.87 99.08,78.93l187.97 30.14c166.44,27.19 292.72,119.03 292.72,307.09 0,176.54 -136.36,334.35 -427.58,334.35 -274.21,0 -430.53,-129.12 -452.12,-348.67l272.7 0c15.79,99.05 100.49,126.23 190.85,126.23 91.84,0 147.83,-38.79 147.83,-96.12 0,-63.2 -44.47,-84.68 -117.65,-97.68l-192.37 -31.44c-185.11,-30.18 -271.17,-136.35 -271.17,-291.36 0,-176.57 143.54,-322.85 403.22,-322.85 229.71,0 401.78,116.24 420.53,314.26l-272.68 0z"/>
  <path class="fil1" d="M2120.05 4523.23c-161.99,-711.4 -216.85,-1618.1 14.43,-2309.33 158.81,-474.53 525.89,-1024.87 894.81,-1172.37 401,-160.33 543.08,584.44 315.31,1189.02 -313.13,830.49 -871.34,1442.69 -1048.37,2311.95 149.5,670.36 425.99,1048.4 847.62,1722.31 533.18,852.74 -28.67,1024.35 -229.45,898.5 -369.07,-231.45 -533.41,-606.27 -655.59,-970.84 -167.97,-501.07 -201.14,-1154.68 -138.76,-1669.23zm76.47 -463.26c15.69,-66.98 32.38,-133.78 50.1,-200.24 143.08,-530.31 405.21,-1057.57 545.06,-1588.28 25.16,-94.86 154.72,-691.55 -58.82,-644.42 -147.86,32.72 -332.61,370.24 -439.56,672.81 -204.33,578.16 -199.68,1121.57 -131.49,1566.91 10.59,64.43 22.14,128.86 34.71,193.23zm38.23 878.9c-4.31,42.6 -7.7,77.8 -10.33,127.57 -36.68,677.47 283.09,1455.73 525.17,1647.99 180,143.02 120.1,-160.61 80.7,-248.12 -202.91,-450.04 -387.17,-828.66 -551.66,-1387.96 -16.06,-54.66 -29.97,-92.79 -43.88,-139.48z"/>
 </g>
</svg>
