<?xml version="1.0" encoding="UTF-8" standalone="no"?>
<svg
   xmlns:dc="http://purl.org/dc/elements/1.1/"
   xmlns:cc="http://creativecommons.org/ns#"
   xmlns:rdf="http://www.w3.org/1999/02/22-rdf-syntax-ns#"
   xmlns:svg="http://www.w3.org/2000/svg"
   xmlns="http://www.w3.org/2000/svg"
   xmlns:sodipodi="http://sodipodi.sourceforge.net/DTD/sodipodi-0.dtd"
   xmlns:inkscape="http://www.inkscape.org/namespaces/inkscape"
   xml:space="preserve"
   width="58.260002mm"
   height="42.02mm"
   version="1.0"
   style="clip-rule:evenodd;fill-rule:evenodd;image-rendering:optimizeQuality;shape-rendering:geometricPrecision;text-rendering:geometricPrecision"
   viewBox="0 0 5826.0004 4202"
   id="svg198"
   sodipodi:docname="msu.svg"
   inkscape:version="1.0.1 (3bc2e813f5, 2020-09-07)"><metadata
     id="metadata202"><rdf:RDF><cc:Work
         rdf:about=""><dc:format>image/svg+xml</dc:format><dc:type
           rdf:resource="http://purl.org/dc/dcmitype/StillImage" /><dc:title></dc:title></cc:Work></rdf:RDF></metadata><sodipodi:namedview
     pagecolor="#ffffff"
     bordercolor="#666666"
     borderopacity="1"
     objecttolerance="10"
     gridtolerance="10"
     guidetolerance="10"
     inkscape:pageopacity="0"
     inkscape:pageshadow="2"
     inkscape:window-width="1920"
     inkscape:window-height="1000"
     id="namedview200"
     showgrid="false"
     fit-margin-top="3"
     fit-margin-left="3"
     fit-margin-right="3"
     fit-margin-bottom="3"
     inkscape:zoom="2.8284271"
     inkscape:cx="111.54201"
     inkscape:cy="90.334564"
     inkscape:window-x="-11"
     inkscape:window-y="-11"
     inkscape:window-maximized="1"
     inkscape:current-layer="svg198"
     inkscape:document-rotation="0" /><defs
     id="defs4"><style
       type="text/css"
       id="style2"><![CDATA[
    .fil0 {fill:#757575}
    .fil1 {fill:#4CD9FF}
   ]]></style></defs><path
     style="fill:#757575"
     inkscape:connector-curvature="0"
     id="path99"
     d="m 2813,2608 c 16,-1 32,-1 47,-2 V 1440 h -47 z m -175,-466 v 0 481 c 43,-5 86,-9 130,-12 V 1440 h -130 z m 267,463 c 8,0 16,0 24,0 8,0 16,0 24,0 V 1440 h -48 z m -983,224 c 30,-14 60,-28 91,-41 v -878 h -91 z m 451,-158 c 70,-17 141,-31 213,-41 v -434 h -213 z m -182,-839 h -134 v 939 c 85,-34 173,-63 262,-87 v -774 h -128 z m 899,779 c 38,2 76,6 114,10 V 1440 h -114 z m 166,17 c 67,9 134,21 199,36 v -468 h -199 z m 383,-718 h -132 v 766 c 89,22 176,50 261,82 v -926 h -129 z m 173,0 v 865 c 31,12 62,25 92,39 v -904 z m -814,696 c 15,1 31,1 47,2 V 1440 h -47 z m 38,-1441 c 0,-43 -25,-79 -61,-96 v 0 l -6,-2 c -15,-7 -13,-27 -13,-27 l 30,-74.00003 c -6,-18 -24,-24 -24,-24 v -18 c 0,0 18,-25 12,-61 0,-5 -27,-356.99998 -30,-395.99998 9,-4 14,-13 14,-23 l -1,-8 c 76,-41 39,-108 22,-116 l -3,3 c 3,2 9,10 13,22 h -43 l -14,-45 -14,45 h -44 c 4,-12 11,-20 13,-22 l -3,-3 c -16,8 -54,76 23,117 l -1,7 c 0,10 5,18 13,23 -3,36 -29,390.99998 -30,395.99998 -5,36 13,61 13,61 v 18 c 0,0 -19,6 -25,24 C 2908,1040 2908,1040 2908,1040 c 0,0 1,20 -14,27 v 0 c -40,15 -68,53 -68,98 v 0 84 h -46 v 136 h 303 v -136 h -47 z m -46,-818.00001 -35,25 12,35 c 26,-21 24,-52 23,-60 z m -116,-1 c -1,7 -5,40 23,61 l 12,-35 z m 58,72 -8,2 c -9,-3 -16,-6 -22,-10 l 30,-21 30,21 c -6,4 -13,7 -22,10 z"
     class="fil0" /><polygon
     style="fill:#4cd9ff"
     id="polygon101"
     points="6816,29357 6930,29357 6930,29393 6853,29393 6853,29472 6920,29472 6920,29508 6853,29508 6853,29620 6816,29620 "
     class="fil1"
     transform="translate(-5203,-25797)" /><path
     style="fill:#4cd9ff"
     inkscape:connector-curvature="0"
     id="path103"
     d="m 1814,3742 c -5,-1 -9,-1 -13,-1 -6,0 -15,1 -21,8 -5,6 -6,14 -6,20 0,5 1,10 4,15 4,6 9,9 15,9 11,0 21,-8 21,-24 z m 0,63 h -1 c -2,4 -7,10 -12,14 -8,6 -14,7 -22,7 -8,0 -19,-1 -29,-9 -11,-11 -13,-28 -13,-43 0,-14 1,-34 11,-47 13,-14 34,-16 45,-16 2,0 9,0 21,1 v -19 c 0,-6 0,-11 -5,-16 -4,-4 -9,-6 -15,-6 -5,0 -11,2 -15,7 -2,3 -4,7 -5,12 h -35 c 0,-17 7,-32 15,-41 10,-9 25,-15 42,-15 17,0 31,6 40,15 13,14 15,31 15,44 v 130 h -37 z"
     class="fil1" /><path
     style="fill:#4cd9ff"
     inkscape:connector-curvature="0"
     id="path105"
     d="m 1967,3693 v 0 c 0,-5 -1,-10 -4,-15 -3,-4 -8,-7 -16,-7 -4,0 -9,1 -14,6 -5,5 -5,12 -5,18 v 72 c 0,6 1,12 4,16 2,2 7,7 15,7 6,0 11,-2 16,-7 3,-5 4,-11 4,-15 v 0 h 37 v 3 c 0,22 -10,35 -19,43 -8,6 -20,12 -37,12 -17,0 -33,-5 -43,-16 -15,-15 -15,-33 -15,-49 v -65 c 0,-15 2,-34 18,-48 7,-7 20,-14 38,-14 18,0 34,6 43,16 10,11 15,28 15,42 v 1 z"
     class="fil1" /><path
     style="fill:#4cd9ff"
     inkscape:connector-curvature="0"
     id="path107"
     d="m 2148,3823 h -37 v -18 c -1,1 -6,8 -13,13 -8,6 -16,8 -26,8 -16,0 -25,-7 -29,-14 -6,-8 -8,-19 -8,-28 v -147 h 38 v 132 c 0,5 0,11 4,16 3,2 6,5 12,5 7,0 13,-3 16,-7 6,-6 6,-13 6,-18 v -128 h 37 z"
     class="fil1" /><path
     style="fill:#4cd9ff"
     inkscape:connector-curvature="0"
     id="path109"
     d="m 2226,3560 v 210 c 0,5 1,11 6,15 3,3 8,3 11,3 h 4 v 35 h -11 c -8,0 -26,-1 -38,-15 -9,-12 -9,-25 -9,-36 v -212 z"
     class="fil1" /><path
     style="fill:#4cd9ff"
     inkscape:connector-curvature="0"
     id="path111"
     d="m 2317,3580 v 57 h 24 v 30 h -24 v 102 c 0,4 0,12 5,16 4,3 10,3 14,3 h 5 v 35 h -10 c -11,0 -29,0 -41,-13 -10,-11 -10,-26 -10,-37 v -106 h -20 v -30 h 20 v -57 z"
     class="fil1" /><path
     style="fill:#4cd9ff"
     inkscape:connector-curvature="0"
     id="path113"
     d="m 2394,3637 31,116 h 1 l 23,-116 h 38 l -51,212 c -3,10 -6,28 -17,39 -12,11 -26,12 -38,12 h -9 l -1,-35 h 7 c 5,0 12,-1 17,-8 2,-2 4,-6 7,-18 l 6,-24 -54,-178 z"
     class="fil1" /><path
     style="fill:#4cd9ff"
     inkscape:connector-curvature="0"
     id="path115"
     d="m 2671,3695 c 0,-9 -2,-15 -6,-19 -3,-3 -8,-5 -13,-5 -6,0 -11,2 -14,5 -3,4 -5,10 -5,19 v 71 c 0,8 2,15 5,18 3,3 8,6 14,6 5,0 10,-3 13,-6 4,-3 6,-10 6,-18 z m -76,2 c 0,-15 1,-35 19,-50 10,-8 24,-13 38,-13 14,0 28,5 38,13 17,15 18,35 18,50 v 66 c 0,15 -1,36 -18,50 -10,9 -24,13 -38,13 -14,0 -28,-4 -38,-13 -18,-14 -19,-35 -19,-50 z"
     class="fil1" /><path
     style="fill:#4cd9ff"
     inkscape:connector-curvature="0"
     id="path117"
     d="m 2756,3667 h -20 v -30 h 20 v -25 c 0,-13 1,-28 14,-40 12,-10 27,-12 40,-12 h 13 v 33 h -7 c -6,0 -12,1 -18,7 -4,5 -5,11 -5,18 v 19 h 30 v 30 h -30 v 156 h -37 z"
     class="fil1" /><path
     style="fill:#4cd9ff"
     inkscape:connector-curvature="0"
     id="path119"
     d="m 3009,3696 c 0,-6 -1,-13 -6,-19 -3,-3 -8,-6 -15,-6 -4,0 -9,1 -13,5 -4,6 -5,11 -5,17 v 74 c 0,4 1,10 5,15 4,4 9,6 13,6 7,0 12,-4 15,-6 5,-6 6,-13 6,-19 z m 37,-59 v 204 c 0,15 -2,30 -14,44 -8,8 -22,17 -43,17 -22,0 -35,-9 -42,-17 -8,-9 -13,-25 -14,-39 h 37 c 0,6 2,10 5,14 4,4 10,5 14,5 8,0 13,-3 15,-7 4,-5 5,-12 5,-20 v -32 c -4,5 -8,8 -13,11 -7,4 -14,7 -24,7 -11,0 -21,-3 -28,-10 -10,-11 -11,-23 -11,-32 v -95 c 0,-12 0,-27 9,-39 3,-4 12,-14 31,-14 7,0 16,2 22,6 5,4 10,9 13,14 h 1 v -17 z"
     class="fil1" /><path
     style="fill:#4cd9ff"
     inkscape:connector-curvature="0"
     id="path121"
     d="m 3160,3715 v -24 c 0,-5 0,-10 -5,-15 -3,-3 -8,-5 -14,-5 -6,0 -11,2 -14,6 -4,5 -5,10 -5,15 v 23 z m -38,53 c 0,6 1,12 5,16 3,4 8,6 14,6 7,0 12,-3 15,-8 3,-4 4,-9 4,-13 h 37 v 1 c 0,14 -2,33 -21,46 -9,7 -22,10 -35,10 -17,0 -33,-7 -43,-18 -13,-14 -13,-33 -13,-45 v -71 c 0,-13 3,-32 18,-45 9,-8 22,-13 37,-13 16,0 30,5 39,14 17,14 19,33 19,47 v 49 h -76 z"
     class="fil1" /><path
     style="fill:#4cd9ff"
     inkscape:connector-curvature="0"
     id="path123"
     d="m 3309,3695 c 0,-9 -2,-15 -6,-19 -3,-3 -7,-5 -13,-5 -6,0 -11,2 -13,5 -4,4 -6,10 -6,19 v 71 c 0,8 2,15 6,18 2,3 7,6 13,6 6,0 10,-3 13,-6 4,-3 6,-10 6,-18 z m -76,2 c 0,-15 2,-35 19,-50 10,-8 24,-13 38,-13 14,0 28,5 38,13 17,15 18,35 18,50 v 66 c 0,15 -1,36 -18,50 -10,9 -24,13 -38,13 -14,0 -28,-4 -38,-13 -17,-14 -19,-35 -19,-50 z"
     class="fil1" /><path
     style="fill:#4cd9ff"
     inkscape:connector-curvature="0"
     id="path125"
     d="m 3459,3696 c 0,-6 0,-13 -6,-19 -2,-3 -7,-6 -14,-6 -5,0 -9,1 -13,5 -4,6 -5,11 -5,17 v 74 c 0,4 1,10 5,15 4,4 8,6 13,6 7,0 12,-4 14,-6 6,-6 6,-13 6,-19 z m 38,-59 v 204 c 0,15 -2,30 -14,44 -8,8 -22,17 -43,17 -22,0 -35,-9 -42,-17 -8,-9 -13,-25 -14,-39 h 37 c 0,6 2,10 5,14 4,4 10,5 14,5 8,0 13,-3 15,-7 4,-5 4,-12 4,-20 v -32 c -3,5 -7,8 -12,11 -7,4 -14,7 -25,7 -11,0 -20,-3 -27,-10 -10,-11 -11,-23 -11,-32 v -95 c 0,-12 0,-27 8,-39 4,-4 13,-14 32,-14 7,0 16,2 22,6 5,4 10,9 13,14 v 0 -17 z"
     class="fil1" /><path
     style="fill:#4cd9ff"
     inkscape:connector-curvature="0"
     id="path127"
     d="m 3575,3637 v 20 0 c 16,-19 36,-23 49,-23 v 40 c -18,-3 -49,2 -49,43 v 106 h -38 v -186 z"
     class="fil1" /><path
     style="fill:#4cd9ff"
     inkscape:connector-curvature="0"
     id="path129"
     d="m 3712,3742 c -5,-1 -9,-1 -13,-1 -6,0 -15,1 -21,8 -5,6 -6,14 -6,20 0,5 1,10 4,15 4,6 9,9 15,9 11,0 21,-8 21,-24 z m 0,63 h -1 c -2,4 -7,10 -13,14 -7,6 -13,7 -21,7 -8,0 -19,-1 -29,-9 -11,-11 -13,-28 -13,-43 0,-14 1,-34 12,-47 12,-14 33,-16 44,-16 2,0 9,0 21,1 v -19 c 0,-6 -1,-11 -5,-16 -4,-4 -9,-6 -15,-6 -5,0 -11,2 -15,7 -2,3 -4,7 -5,12 h -35 c -1,-17 6,-32 15,-41 9,-9 25,-15 42,-15 17,0 31,6 40,15 13,14 15,31 15,44 v 130 h -37 z"
     class="fil1" /><path
     style="fill:#4cd9ff"
     inkscape:connector-curvature="0"
     id="path131"
     d="m 3827,3765 c 0,6 1,13 6,19 3,2 7,6 14,6 6,0 10,-2 13,-6 5,-5 5,-11 5,-15 v -76 c 0,-6 0,-11 -5,-17 -3,-3 -7,-5 -13,-5 -7,0 -11,3 -14,6 -5,6 -6,13 -6,19 z m 0,-111 h 1 c 3,-5 7,-10 12,-14 7,-4 16,-6 23,-6 19,0 28,10 31,14 8,12 9,27 9,39 v 97 c 0,9 -1,21 -11,31 -8,8 -17,11 -28,11 -11,0 -18,-3 -25,-7 -4,-3 -8,-7 -12,-11 v 92 h -37 v -263 h 37 z"
     class="fil1" /><path
     style="fill:#4cd9ff"
     inkscape:connector-curvature="0"
     id="path133"
     d="m 3943,3560 h 38 v 92 c 3,-4 7,-8 12,-11 7,-4 14,-7 25,-7 10,0 20,3 27,11 10,10 11,22 11,31 v 147 h -37 v -131 c 0,-5 -1,-11 -5,-16 -4,-3 -8,-5 -13,-5 -7,0 -12,3 -14,6 -6,6 -6,13 -6,19 v 127 h -38 z"
     class="fil1" /><path
     style="fill:#4cd9ff"
     inkscape:connector-curvature="0"
     id="path135"
     d="m 4121,3637 30,116 h 1 l 23,-116 h 38 l -51,212 c -3,10 -6,28 -17,39 -11,11 -26,12 -38,12 h -9 l -1,-35 h 7 c 5,0 12,-1 18,-8 1,-2 3,-6 6,-18 l 6,-24 -54,-178 z"
     class="fil1" /><polygon
     style="fill:#4cd9ff"
     id="polygon137"
     points="5503,29207 5503,28933 5542,28933 5542,29169 5624,29169 5624,29207 "
     class="fil1"
     transform="translate(-5203,-25797)" /><path
     style="fill:#4cd9ff"
     inkscape:connector-curvature="0"
     id="path139"
     d="m 535.00001,3202 c 0,-8 -1,-16 -8,-24 -5,-4 -12,-7 -21,-7 -10,0 -17,3 -21,7 -8,8 -9,16 -9,24 v 142 c 0,8 1,16 9,23 4,5 11,8 21,8 9,0 16,-3 21,-8 7,-7 8,-15 8,-23 z m -98,6 c 0,-21 2,-41 21,-58 11,-11 27,-18 48,-18 20,0 36,7 48,18 18,17 20,37 20,58 v 130 c 0,20 -2,40 -20,58 -12,11 -28,17 -48,17 -21,0 -37,-6 -48,-17 -19,-18 -21,-38 -21,-58 z"
     class="fil1" /><polygon
     style="fill:#4cd9ff"
     id="polygon141"
     points="5924,29159 5904,29159 5863,29035 5861,29035 5861,29207 5822,29207 5822,28933 5861,28933 5915,29084 5916,29084 5967,28933 6006,28933 6006,29207 5967,29207 5967,29035 5965,29035 "
     class="fil1"
     transform="translate(-5203,-25797)" /><path
     style="fill:#4cd9ff"
     inkscape:connector-curvature="0"
     id="path143"
     d="m 945.99999,3202 c 0,-8 -1,-16 -8,-24 -5,-4 -12,-7 -21,-7 -10,0 -17,3 -21,7 -8,8 -9,16 -9,24 v 142 c 0,8 1,16 9,23 4,5 11,8 21,8 9,0 16,-3 21,-8 7,-7 8,-15 8,-23 z m -98,6 c 0,-21 2,-41 21,-58 11,-11 27,-18 48,-18 20,0 36,7 48,18 18,17 20,37 20,58 v 130 c 0,20 -2,40 -20,58 -12,11 -28,17 -48,17 -21,0 -37,-6 -48,-17 -19,-18 -21,-38 -21,-58 z"
     class="fil1" /><polygon
     style="fill:#4cd9ff"
     id="polygon145"
     points="6272,28933 6337,29105 6337,28933 6376,28933 6376,29207 6337,29207 6272,29035 6272,29207 6233,29207 6233,28933 "
     class="fil1"
     transform="translate(-5203,-25797)" /><path
     style="fill:#4cd9ff"
     inkscape:connector-curvature="0"
     id="path147"
     d="m 1316,3202 c 0,-8 -1,-16 -9,-24 -4,-4 -11,-7 -21,-7 -9,0 -17,3 -21,7 -7,8 -8,16 -8,24 v 142 c 0,8 1,16 8,23 4,5 12,8 21,8 10,0 17,-3 21,-8 8,-7 9,-15 9,-23 z m -98,6 c 0,-21 2,-41 20,-58 12,-11 28,-18 48,-18 20,0 37,7 48,18 19,17 20,37 20,58 v 130 c 0,20 -1,40 -20,58 -11,11 -28,17 -48,17 -20,0 -36,-6 -48,-17 -18,-18 -20,-38 -20,-58 z"
     class="fil1" /><path
     style="fill:#4cd9ff"
     inkscape:connector-curvature="0"
     id="path149"
     d="m 1490,3205 c 0,-6 -1,-18 -7,-25 -4,-5 -9,-9 -21,-9 -5,0 -12,1 -19,7 -7,8 -8,19 -8,28 0,7 1,21 6,28 5,7 12,10 18,12 l 24,9 c 12,4 25,9 35,23 11,15 12,30 12,48 v 9 c 0,28 -7,49 -19,60 -10,11 -28,18 -50,18 -28,0 -46,-11 -55,-23 -12,-17 -12,-43 -12,-46 v -10 h 39 v 8 c 0,6 1,17 6,24 7,8 16,9 21,9 15,0 22,-6 25,-10 6,-7 6,-18 6,-27 v -10 c 0,-9 -1,-21 -6,-28 -5,-7 -15,-10 -19,-12 l -28,-10 c -14,-5 -28,-12 -36,-31 -6,-12 -6,-26 -6,-39 v -8 c 0,-23 9,-40 20,-51 13,-12 30,-17 48,-17 38,0 64,26 64,71 v 9 h -38 z"
     class="fil1" /><path
     style="fill:#4cd9ff"
     inkscape:connector-curvature="0"
     id="path151"
     d="m 1667,3202 c 0,-8 -1,-16 -8,-24 -5,-4 -12,-7 -21,-7 -10,0 -17,3 -21,7 -8,8 -9,16 -9,24 v 142 c 0,8 1,16 9,23 4,5 11,8 21,8 9,0 16,-3 21,-8 7,-7 8,-15 8,-23 z m -98,6 c 0,-21 2,-41 21,-58 11,-11 27,-18 48,-18 20,0 36,7 48,18 18,17 20,37 20,58 v 130 c 0,20 -2,40 -20,58 -12,11 -28,17 -48,17 -21,0 -37,-6 -48,-17 -19,-18 -21,-38 -21,-58 z"
     class="fil1" /><polygon
     style="fill:#4cd9ff"
     id="polygon153"
     points="6928,28933 6971,28933 7002,29122 7004,29122 7037,28933 7077,28933 7020,29207 6986,29207 "
     class="fil1"
     transform="translate(-5203,-25797)" /><polygon
     style="fill:#4cd9ff"
     id="polygon155"
     points="7298,29159 7277,29159 7236,29035 7234,29035 7234,29207 7195,29207 7195,28933 7234,28933 7288,29084 7290,29084 7341,28933 7380,28933 7380,29207 7341,29207 7341,29035 7339,29035 "
     class="fil1"
     transform="translate(-5203,-25797)" /><path
     style="fill:#4cd9ff"
     inkscape:connector-curvature="0"
     id="path157"
     d="m 2319,3202 c 0,-8 0,-16 -8,-24 -4,-4 -11,-7 -21,-7 -10,0 -17,3 -21,7 -7,8 -8,16 -8,24 v 142 c 0,8 1,16 8,23 4,5 11,8 21,8 10,0 17,-3 21,-8 8,-7 8,-15 8,-23 z m -97,6 c 0,-21 2,-41 20,-58 12,-11 28,-18 48,-18 20,0 36,7 48,18 19,17 20,37 20,58 v 130 c 0,20 -1,40 -20,58 -12,11 -28,17 -48,17 -20,0 -36,-6 -48,-17 -18,-18 -20,-38 -20,-58 z"
     class="fil1" /><path
     style="fill:#4cd9ff"
     inkscape:connector-curvature="0"
     id="path159"
     d="m 2493,3205 c 0,-6 0,-18 -6,-25 -4,-5 -10,-9 -21,-9 -5,0 -13,1 -19,7 -7,8 -8,19 -8,28 0,7 1,21 6,28 4,7 12,10 18,12 l 24,9 c 11,4 25,9 35,23 11,15 12,30 12,48 v 9 c 0,28 -7,49 -19,60 -10,11 -28,18 -50,18 -28,0 -46,-11 -55,-23 -12,-17 -12,-43 -12,-46 v -10 h 39 v 8 c 0,6 0,17 6,24 6,8 16,9 21,9 15,0 22,-6 25,-10 6,-7 6,-18 6,-27 v -10 c 0,-9 -1,-21 -6,-28 -5,-7 -15,-10 -19,-12 l -28,-10 c -14,-5 -28,-12 -36,-31 -6,-12 -6,-26 -6,-39 v -8 c 0,-23 9,-40 20,-51 13,-12 29,-17 47,-17 39,0 65,26 65,71 v 9 h -39 z"
     class="fil1" /><path
     style="fill:#4cd9ff"
     inkscape:connector-curvature="0"
     id="path161"
     d="m 2664,3198 c 0,-5 -2,-13 -5,-18 -2,-2 -8,-9 -20,-9 -10,0 -17,4 -21,9 -6,7 -6,17 -6,26 v 135 c 0,9 0,17 5,24 3,4 9,10 20,10 8,0 17,-3 21,-9 3,-3 6,-9 6,-22 v -10 h 39 v 11 c 0,27 -9,43 -16,50 -9,9 -25,18 -51,18 -26,0 -41,-10 -49,-20 -14,-17 -14,-35 -14,-49 v -142 c 0,-18 2,-39 20,-54 12,-11 30,-16 44,-16 17,0 36,7 47,18 10,10 18,26 18,45 v 19 h -38 z"
     class="fil1" /><path
     style="fill:#4cd9ff"
     inkscape:connector-curvature="0"
     id="path163"
     d="m 2840,3202 c 0,-8 -1,-16 -9,-24 -4,-4 -11,-7 -21,-7 -9,0 -16,3 -21,7 -7,8 -8,16 -8,24 v 142 c 0,8 1,16 8,23 5,5 12,8 21,8 10,0 17,-3 21,-8 8,-7 9,-15 9,-23 z m -98,6 c 0,-21 2,-41 20,-58 12,-11 28,-18 48,-18 21,0 37,7 48,18 19,17 21,37 21,58 v 130 c 0,20 -2,40 -21,58 -11,11 -27,17 -48,17 -20,0 -36,-6 -48,-17 -18,-18 -20,-38 -20,-58 z"
     class="fil1" /><polygon
     style="fill:#4cd9ff"
     id="polygon165"
     points="8246,29207 8215,29030 8212,29030 8181,29207 8145,29207 8103,28933 8144,28933 8166,29103 8167,29103 8198,28933 8228,28933 8259,29103 8261,29103 8282,28933 8323,28933 8281,29207 "
     class="fil1"
     transform="translate(-5203,-25797)" /><path
     style="fill:#4cd9ff"
     inkscape:connector-curvature="0"
     id="path167"
     d="m 3331,3205 c 0,-6 -1,-18 -7,-25 -4,-5 -10,-9 -21,-9 -5,0 -13,1 -19,7 -7,8 -8,19 -8,28 0,7 1,21 6,28 5,7 12,10 18,12 l 24,9 c 12,4 25,9 35,23 11,15 12,30 12,48 v 9 c 0,28 -7,49 -19,60 -10,11 -28,18 -50,18 -28,0 -46,-11 -55,-23 -12,-17 -12,-43 -12,-46 v -10 h 39 v 8 c 0,6 0,17 6,24 7,8 16,9 21,9 15,0 22,-6 25,-10 6,-7 6,-18 6,-27 v -10 c 0,-9 -1,-21 -6,-28 -5,-7 -15,-10 -19,-12 l -28,-10 c -14,-5 -28,-12 -36,-31 -6,-12 -6,-26 -6,-39 v -8 c 0,-23 9,-40 20,-51 13,-12 30,-17 47,-17 39,0 65,26 65,71 v 9 h -38 z"
     class="fil1" /><polygon
     style="fill:#4cd9ff"
     id="polygon169"
     points="8666,28970 8666,29207 8627,29207 8627,28970 8579,28970 8579,28933 8714,28933 8714,28970 "
     class="fil1"
     transform="translate(-5203,-25797)" /><path
     style="fill:#4cd9ff"
     inkscape:connector-curvature="0"
     id="path171"
     d="m 3569,3212 -20,104 h 41 z m 38,198 -12,-59 h -50 l -13,59 h -39 l 60,-274 h 34 l 59,274 z"
     class="fil1" /><polygon
     style="fill:#4cd9ff"
     id="polygon173"
     points="8933,28970 8933,29207 8894,29207 8894,28970 8846,28970 8846,28933 8982,28933 8982,28970 "
     class="fil1"
     transform="translate(-5203,-25797)" /><polygon
     style="fill:#4cd9ff"
     id="polygon175"
     points="9130,29207 9013,29207 9013,28933 9128,28933 9128,28970 9052,28970 9052,29051 9119,29051 9119,29086 9052,29086 9052,29169 9130,29169 "
     class="fil1"
     transform="translate(-5203,-25797)" /><path
     style="fill:#4cd9ff"
     inkscape:connector-curvature="0"
     id="path177"
     d="m 4093,3136 v 208 c 0,18 9,31 26,31 18,0 26,-13 26,-31 v -208 h 39 v 202 c 0,60 -35,75 -65,75 -29,0 -65,-15 -65,-75 v -202 z"
     class="fil1" /><polygon
     style="fill:#4cd9ff"
     id="polygon179"
     points="9473,28933 9538,29105 9538,28933 9577,28933 9577,29207 9538,29207 9473,29035 9473,29207 9434,29207 9434,28933 "
     class="fil1"
     transform="translate(-5203,-25797)" /><polygon
     style="fill:#4cd9ff"
     id="polygon181"
     points="9624,29207 9624,28933 9663,28933 9663,29207 "
     class="fil1"
     transform="translate(-5203,-25797)" /><polygon
     style="fill:#4cd9ff"
     id="polygon183"
     points="9690,28933 9733,28933 9765,29122 9766,29122 9799,28933 9840,28933 9782,29207 9748,29207 "
     class="fil1"
     transform="translate(-5203,-25797)" /><polygon
     style="fill:#4cd9ff"
     id="polygon185"
     points="9984,29207 9867,29207 9867,28933 9983,28933 9983,28970 9906,28970 9906,29051 9974,29051 9974,29086 9906,29086 9906,29169 9984,29169 "
     class="fil1"
     transform="translate(-5203,-25797)" /><path
     style="fill:#4cd9ff"
     inkscape:connector-curvature="0"
     id="path187"
     d="m 4857,3256 h 22 c 9,0 17,-1 24,-9 8,-7 8,-14 8,-24 v -20 c 0,-10 -4,-20 -9,-25 -8,-7 -17,-7 -25,-7 h -20 z m 12,-120 c 20,0 49,-1 67,22 9,11 14,27 14,47 v 21 c 0,18 -6,34 -14,43 -6,7 -14,12 -21,14 l 43,127 h -40 l -38,-118 h -23 v 118 h -39 v -274 z"
     class="fil1" /><path
     style="fill:#4cd9ff"
     inkscape:connector-curvature="0"
     id="path189"
     d="m 5081,3205 c 0,-6 0,-18 -6,-25 -4,-5 -10,-9 -21,-9 -6,0 -13,1 -19,7 -8,8 -8,19 -8,28 0,7 1,21 6,28 4,7 12,10 18,12 l 24,9 c 11,4 25,9 35,23 10,15 12,30 12,48 v 9 c 0,28 -8,49 -19,60 -10,11 -28,18 -51,18 -27,0 -45,-11 -54,-23 -13,-17 -13,-43 -13,-46 v -10 h 39 v 8 c 0,6 1,17 6,24 7,8 17,9 22,9 15,0 21,-6 24,-10 6,-7 7,-18 7,-27 v -10 c 0,-9 -1,-21 -7,-28 -5,-7 -14,-10 -18,-12 l -29,-10 c -14,-5 -28,-12 -35,-31 -6,-12 -6,-26 -6,-39 v -8 c 0,-23 9,-40 20,-51 13,-12 29,-17 47,-17 39,0 65,26 65,71 v 9 h -39 z"
     class="fil1" /><polygon
     style="fill:#4cd9ff"
     id="polygon191"
     points="10366,29207 10366,28933 10404,28933 10404,29207 "
     class="fil1"
     transform="translate(-5203,-25797)" /><polygon
     style="fill:#4cd9ff"
     id="polygon193"
     points="10523,28970 10523,29207 10484,29207 10484,28970 10436,28970 10436,28933 10571,28933 10571,28970 "
     class="fil1"
     transform="translate(-5203,-25797)" /><polygon
     style="fill:#4cd9ff"
     id="polygon195"
     points="10672,29091 10672,29207 10633,29207 10633,29090 10576,28933 10618,28933 10652,29042 10655,29042 10688,28933 10729,28933 "
     class="fil1"
     transform="translate(-5203,-25797)" /></svg>
